<?xml version="1.0" encoding="UTF-8"?>
<svg width="19px" height="16px" viewBox="0 0 19 16" version="1.1" xmlns="http://www.w3.org/2000/svg" xmlns:xlink="http://www.w3.org/1999/xlink">
    <title>Icon/光标/move</title>
    <g id="设计稿" stroke="none" stroke-width="1" fill="none" fill-rule="evenodd">
        <g id="患者详情-结构化病历-1级对多模块3" transform="translate(-1429.000000, -468.000000)">
            <g id="4.数据展示/2.Popover气泡卡片/亮色/上中⬇️" transform="translate(1224.000000, 236.000000)">
                <g id="列选择备份-9" transform="translate(13.000000, 220.000000)">
                    <g id="Icon/光标/move" transform="translate(192.240000, 12.000000)">
                        <path d="M10.8,5 L11.88,5 L11.88,6 L10.8,6 L10.8,5 Z M11.88,11 L10.8,11 L10.8,10 L11.88,10 L11.88,11 Z M6.48,6 L5.4,6 L5.4,5 L6.48,5 L6.48,6 Z M6.48,11 L5.4,11 L5.4,10 L6.48,10 L6.48,11 Z M8.64,0.013 L0.0162,8.001 L5.65596,13.222 L8.64,15.985 L17.26272,8 L8.64,0.013 Z" id="cursor" fill="#FFFFFF"></path>
                        <polygon id="cursor" fill="#000000" points="15.731712 7.9971 12.970152 5.1881 12.970152 7.0171 8.640432 7.0171 4.319352 7.0171 4.319352 5.1881 1.542672 7.9971 4.320432 10.8051 4.319352 8.9971 8.640432 8.9971 12.970152 8.9971 12.969072 10.8051"></polygon>
                        <polygon id="cursor" fill="#000000" points="9.706284 8 9.720324 8 9.720324 3.999 11.671884 4 8.640324 1.429 5.606604 3.999 7.560324 3.999 7.560324 8 7.568964 8 7.568964 12.002 5.594724 12.001 8.626284 14.578 11.655684 12.002 9.706284 12.002"></polygon>
                    </g>
                </g>
            </g>
        </g>
    </g>
</svg>