<?xml version="1.0" encoding="UTF-8"?>
<svg width="80px" height="80px" viewBox="0 0 80 80" version="1.1" xmlns="http://www.w3.org/2000/svg" xmlns:xlink="http://www.w3.org/1999/xlink">
    <title>无数据_小</title>
    <defs>
        <linearGradient x1="100%" y1="50%" x2="0%" y2="50%" id="linearGradient-1">
            <stop stop-color="#777777" offset="0%"></stop>
            <stop stop-color="#EEEEEE" stop-opacity="0" offset="100%"></stop>
        </linearGradient>
        <linearGradient x1="50%" y1="0%" x2="50%" y2="100%" id="linearGradient-2">
            <stop stop-color="#F5F5F5" offset="0%"></stop>
            <stop stop-color="#B1B1B1" offset="100%"></stop>
        </linearGradient>
        <linearGradient x1="50%" y1="0%" x2="50%" y2="100%" id="linearGradient-3">
            <stop stop-color="#F5F5F5" offset="0%"></stop>
            <stop stop-color="#E7E7E7" offset="100%"></stop>
        </linearGradient>
    </defs>
    <g id="页面-1" stroke="none" stroke-width="1" fill="none" fill-rule="evenodd">
        <g id="编组-2">
            <rect id="矩形" x="0" y="0" width="80" height="80"></rect>
            <g id="编组" transform="translate(5.000000, 20.000000)">
                <rect id="矩形" fill="url(#linearGradient-1)" x="0" y="38.3114754" width="20.3333333" height="2.35245902"></rect>
                <path d="M43.5856041,0 C44.7234064,6.79167519e-16 45.8073658,0.484552838 46.5661727,1.33237733 L46.8882271,1.69221283 C47.450434,2.32037371 48.1911322,2.74911796 48.9999748,2.92911819 L49,4.36885246 L31.3333333,4.368 L31.3333333,4 C31.3333333,1.790861 33.1241943,4.05812251e-16 35.3333333,0 L43.5856041,0 Z" id="形状结合备份" fill="#D0D0D0"></path>
                <path d="M33.9189374,0 C35.0567397,5.56774448e-16 36.1406992,0.484552838 36.899506,1.33237733 L37.2215604,1.69221283 C37.7837673,2.32037371 38.5244655,2.74911796 39.3333081,2.92911819 L39.3333333,4.36885246 L21.6666667,4.368 L21.6666667,4 C21.6666667,1.790861 23.4575277,4.05812251e-16 25.6666667,0 L33.9189374,0 Z" id="形状结合" fill="#E0E0E0"></path>
                <path d="M15.6666667,0 L23.9189374,0 C25.0567397,6.79167519e-16 26.1406992,0.484552838 26.899506,1.33237733 L27.2215604,1.69221283 C27.9803673,2.54003733 29.0643267,3.02459016 30.2021291,3.02459016 L44.0403555,3.02459016 L55.6666667,3.02459016 C57.8758057,3.02459016 59.6666667,4.81545116 59.6666667,7.02459016 L59.6666667,36.6639344 C59.6666667,38.8730734 57.8758057,40.6639344 55.6666667,40.6639344 L15.6666667,40.6639344 C13.4575277,40.6639344 11.6666667,38.8730734 11.6666667,36.6639344 L11.6666667,4 C11.6666667,1.790861 13.4575277,4.05812251e-16 15.6666667,0 Z" id="矩形" fill="url(#linearGradient-2)"></path>
                <path d="M24.0674537,11.7622951 L63.8727671,11.7622951 C66.0819061,11.7622951 67.8727671,13.5531561 67.8727671,15.7622951 C67.8727671,16.2098516 67.7976557,16.6542346 67.6505625,17.0769288 L60.3770084,37.9785681 C59.8174978,39.5864051 58.3016207,40.6639344 56.599213,40.6639344 L16.7938996,40.6639344 C14.5847606,40.6639344 12.7938996,38.8730734 12.7938996,36.6639344 C12.7938996,36.216378 12.869011,35.7719949 13.0161042,35.3493007 L20.2896583,14.4476614 C20.8491689,12.8398244 22.365046,11.7622951 24.0674537,11.7622951 Z" id="矩形" fill="url(#linearGradient-3)"></path>
                <g id="编组备份" opacity="0.796293713" transform="translate(35.000000, 20.500000)" fill="#CECECE">
                    <path d="M7.04192985,6.89648752 C7.33249138,6.67731574 7.56072647,6.37297971 7.66808369,6.06162861 L8.53202788,3.55606846 C8.55899717,3.4778537 8.53860725,3.4105877 8.47889236,3.38049502 C8.45869277,3.370333 8.43594266,3.36535033 8.41179307,3.36535033 C8.36451339,3.36535033 8.31197078,3.38449426 8.26365519,3.4209464 L6.57190458,4.696968 C6.28132045,4.91620533 6.05313057,5.22041024 5.94575074,5.53182691 L5.1125737,7.94815799 C5.08035975,8.04158299 5.10474419,8.12202683 5.17618787,8.15802004 C5.24773638,8.19407881 5.34623087,8.17545937 5.43345257,8.10970128 M2.33762568,9.31283171 C1.93619772,9.01308497 1.81557991,8.4535184 2.02281168,7.85251701 L3.57434847,3.35284122 C3.86205859,2.51844124 4.71372772,1.8001505 5.55532883,1.68207441 C5.75390518,1.65427638 5.95619353,1.5523284 6.12484315,1.39511215 C6.29351128,1.23802703 6.40846198,1.04435864 6.44845413,0.849837961 C6.48842368,0.655382839 6.44870024,0.483415278 6.33656609,0.365666997 C6.24505354,0.269422857 6.11493592,0.21861277 5.96035302,0.21861277 C5.92613579,0.21861277 5.89052716,0.221169664 5.85465556,0.226152331 C4.27811233,0.447356506 2.68330317,1.7914964 2.14493462,3.35284122 L0.593397832,7.85251701 C0.211464738,8.96017692 0.431182704,10.0243696 1.15309526,10.5636777 L2.51045993,11.5777815 C2.77203047,11.7732856 3.24129168,11.6626835 3.55660065,11.3312706 C3.65073705,11.2323385 3.81287631,11.0267379 3.8414134,10.7612142 C3.86180498,10.5716107 3.79735262,10.4050191 3.66451685,10.3042513 M11.4779711,0.218678331 C11.3244077,0.218678331 11.1582349,0.269291734 11.0000503,0.365666997 C10.8067143,0.483415278 10.6483984,0.655382839 10.5542675,0.849837961 C10.4601366,1.04429308 10.4414656,1.23796147 10.5017819,1.39511215 C10.5620755,1.5523284 10.6940583,1.65427638 10.8734645,1.68207441 C11.6336378,1.8001505 11.9898944,2.51844124 11.7021843,3.35284122 L10.1732538,7.78695561 C9.96602205,8.38795699 9.45951504,8.94752357 8.85143898,9.24727031 L5.41121971,10.947802 C4.52857063,11.3793271 3.9298778,12.0369736 3.6314749,12.9023841 L3.51747144,13.2330103 C3.3776516,13.6385075 3.58446832,13.9684125 3.97857186,13.9684125 C4.3726754,13.9684125 4.80706544,13.6385075 4.94688528,13.2330103 L5.05887679,12.9082191 C5.15434311,12.6313533 5.39597985,12.3637316 5.67442711,12.226446 L9.17335898,10.4981163 C10.2672127,9.95874266 11.2208209,8.89454996 11.6027314,7.78695561 L13.1316619,3.35284122 C13.6700304,1.7914964 13.0021692,0.447356506 11.5781731,0.226152331" id="Fill-26" opacity="0.567847842"></path>
                </g>
            </g>
        </g>
    </g>
</svg>